<svg xmlns="http://www.w3.org/2000/svg" width="758" height="1062" viewBox="0 0 758 1062">
	<style>

		.healthequity:hover *{
			fill: #FFE9CD;
		}
		.healthequity *{
			fill: #FFF;
		}
		path,
		polygon,
		rect {
			fill: #FFF;
			cursor:pointer;
		}
		path:hover,
		polygon:hover,
		rect:hover {
			fill: #FFE9CD;
		}
		#Outlines line,
		#Outlines polyline,
		#Outlines rect {
			fill: none;
			stroke-width: 2;
			stroke: #000;
			pointer-events:none;
		}
		#Text text {
			font-family: "Arial";
			pointer-events:none;
		}
	</style>
	<g id="Rooms">
		<g class="healthequity">
			<polygon id="Room140" points="358.333,113 16.333,113 16.333,1 358.333,1 358.333,15.529 407.325,54.333
			358.333,92.66 	"/>
			<rect id="Room141" x="274.333" y="113" width="84" height="86.667"/>
			<rect id="Room138" x="16.333" y="113" width="200.667" height="66.667"/>
			<rect id="BTAC2ndHall" x="217" y="113" width="58" height="78.664"/>
		</g>
		<rect id="Room137" x="16.333" y="179.667" width="200.667" height="62"/>
		<rect id="Room135" x="16.333" y="261.665" width="113.667" height="65.333"/>
		<rect id="Room136" x="130" y="261.665" width="87" height="65.333"/>
		<rect id="Room133" x="127" y="326.999" width="90" height="62"/>
		<rect id="Room134" x="16.333" y="326.999" width="113.667" height="62"/>
		<rect id="Room131" x="16.333" y="404" width="113.667" height="66.33"/>
		<rect id="Room132" x="130" y="404" width="87" height="66.33"/>
		<rect id="Room129" x="127" y="470.33" width="90" height="65"/>
		<rect id="Room130" x="16.333" y="470.33" width="113.667" height="65.18"/>
		<rect id="Room127" x="16.333" y="550" width="113.333" height="130"/>
		<rect id="Room126" x="129.667" y="614" width="87.333" height="65.662"/>
		<rect id="Room128" x="129.667" y="550" width="87.333" height="64"/>
		<rect id="Room124" x="16.333" y="679.662" width="106.667" height="64"/>
		<rect id="Room125" x="123" y="679.662" width="94" height="64"/>
		<polygon id="Room123" points="1,743.662 1,757.661 1,823 137,823 137,757.661 217,757.661 217,743.662 	"/>
		<rect id="Room122" x="137" y="757.661" width="80" height="65.339"/>
		<rect id="SEUCloset" x="1" y="870" width="178" height="34.988"/>
		<polygon id="Room119" points="179,869.666 179,905 1,905 1,1036.334 31.33,1036.334 116.333,1061 193.83,1036.334
		217,1036.334 217,1013.172 217,869.666 	"/>
		<rect id="Room118" x="217" y="869.654" width="61.333" height="99.334"/>
		<rect id="Room117" x="278.333" y="919" width="91.167" height="49.666"/>
		<rect id="Room116" x="278.333" y="869.654" width="91.167" height="50.346"/>
		<rect id="Room114" x="369.5" y="919.322" width="136.166" height="49.666"/>
		<rect id="Room113" x="435.666" y="869.654" width="70" height="50.334"/>
		<rect id="Room115" x="369.5" y="869.654" width="66.166" height="49.668"/>
		<rect id="Room105" x="548" y="875.656" width="81" height="38"/>
		<rect id="Room104" x="548" y="913.656" width="81" height="55.332"/>
		<rect id="Room103" x="629" y="931" width="83.333" height="37.988"/>
		<polygon id="Room102" points="629,875 629,931 714,931 714,968 756,968 756,875 	"/>
		<rect id="Room101" x="590.333" y="738.995" width="166" height="102.662"/>
		<polygon id="Room107" points="532.333,738.995 505.666,738.995 505.666,815.99 532,815.99 532,841.656
		590.333,841.656 590.333,738.995 	"/>
		<rect id="Server_Room" x="505.666" y="815.99" width="26.334" height="25.666"/>
		<rect id="Room109" x="451" y="738.995" width="54.666" height="102.662"/>
		<polygon id="MRRSEU" points="389.666,790.668 389.666,816 369.666,816 369.666,842 389.666,842 451,842
		451,790.668 	"/>
		<rect id="FRRSEU" x="341" y="738.67" width="110" height="52.33"/>
		<rect id="Room112" x="274.333" y="738.995" width="66.667" height="102.662"/>
		<rect id="Room157" x="274" y="687" width="60" height="52"/>
		<rect id="Room158" x="334.333" y="674.995" width="69.997" height="63.166"/>
		<rect id="Room159" x="404.33" y="674.995" width="80.67" height="63.166"/>
		<polygon id="MRRBTAC" points="303,599.661 303,644 274.333,644 274.333,658.33 303,658.33 401,658.33 401,599.661
		"/>
		<polygon id="FRRBTAC" points="303,541.664 274.333,541.664 274.333,559 303,559 303,599.661 401,599.661
		401,541.664 	"/>
		<polygon id="Room152" points="395,492.331 395,507.664 324.333,507.664 324.333,541.664 395,541.664 401,541.664
		401,658.33 485,658.33 485,541.664 485,492.331 	"/>
		<rect id="ElectricCloset" x="274" y="507.664" width="50.333" height="34"/>
		<rect id="Room150" x="274" y="444.998" width="93" height="47.333"/>
		<rect id="Room149" x="274.333" y="397.664" width="92.667" height="47.333"/>
		<rect id="Room151" x="395" y="419.664" width="90" height="72.667"/>
		<rect id="Room146" x="395" y="382.331" width="90" height="37.333"/>
		<rect id="Room148" x="274.333" y="344.998" width="92.667" height="52.667"/>
		<rect id="Room147" x="395" y="289.664" width="90" height="92.336"/>
		<path
			id="HallwayBTAC"
			d="M343.625,223.047v-24.339h-68.67v-7.661h-58.33v50H15.958v21h200.667v126.999H15.958
		v15.001h200.667v131H15.958v15h200.667v102.99h57v-8.99h29V559H274v-51.289h121v-15.333V289.711h89.625v-66.664H343.625z
		 M367,492.378h-93V345.045h93V492.378z"/>
		<polygon
			id="HallwaySEU"
			points="548,841.01 369.666,841.01 369.666,816.01 389.666,816.01 389.666,791 341,791
		341,841 274.333,841 274.333,822.338 274.333,687.005 334.333,687.005 334.333,675.005 485,675.005 485,658.34 334.333,658.34
		274.333,658.34 274.333,653 217,653 217,823 1,823 1,870 505,870 505,968.998 548,968.998 548,875.01 757,875.01 757,841.01 	"/>
	</g>
	<g id="Outlines">
		<polyline points="217,113 16,113 16,1 358,1 358,15
		407.325,54.333 358,93 358,113 245.667,113 	"/>
		<polyline points="275,165.667 275,113 358,113 358,199
		275,199 275,186 	"/>
		<polyline points="217,135.16 217,179 16,179 16,113
		217,113 	"/>
		<polyline points="49,241 217,241 217,179 16,179 16,241
		29,241 	"/>
		<polyline points="107.667,262 16,262 16,326.999
		130,326.999 130,261 	"/>
		<polyline points="145,262 217,262 217,326.999 130,326.999
		130,261 	"/>
		<polyline points="130,390 130,326.999 16,326.999
		16,388.999 114,388.999 	"/>
		<polyline points="130,390 130,326.999 217,326.999
		217,388.999 146,388.999 	"/>
		<polyline points="394,289 485,289 485,382 395,382 395,308
			"/>
		<polyline points="368,344.998 274,344.998 274,397 367,397
		367,362 	"/>
		<polyline points="395,405 395,382 485,382 485,419 394,419
			"/>
		<polyline points="367,425 367,444.998 274,444.998 274,397
		367,397 367,409.664 	"/>
		<polyline points="394,419 485,419 485,492 395,492 395,432
			"/>
		<g>
			<polyline points="367,459.664 367,444.998 274,444.998
			274,459.664 		"/>
			<polyline points="274,478 274,492 367,492 367,477 		"/>
		</g>
		<g>
			<polyline points="395,492 485,492 485,658 401,658
			401,541 324,541 324,507 396,507 		"/>
			<line x1="369" y1="507.664" x2="369" y2="518"/>
			<line x1="369" y1="528" x2="369" y2="541.664"/>
		</g>
		<polyline points="114,404 16,404 16,470 130,470 130,403
		"/>
		<polyline points="146,404 217,404 217,470 130,470 130,403
			"/>
		<g>
			<polyline points="146,535 217,535 217,470 130,470
			130,483 		"/>
			<line x1="130" y1="496" x2="130" y2="536"/>
		</g>
		<g>
			<line x1="130" y1="536" x2="130" y2="496"/>
			<polyline points="130,483 130,470 16,470 16,535 111,535
					"/>
		</g>
		<polyline points="111,550 16,550 16,680 130,680 130,549
		"/>
		<g>
			<line x1="130" y1="549" x2="130" y2="614.662"/>
			<polyline points="157,614 217,614 217,550 146.333,550
			"/>
		</g>
		<polyline points="130,614.662 130,680 217,680 217,614
		157,614 	"/>
		<polyline points="123,701.662 123,680 16,680 16,743
		123,743 123,718 	"/>
		<g>
			<polyline points="123,701.662 123,680 217,680
			217,701.662 		"/>
			<polyline points="123,718 123,743 217,743 217,718 		"/>
		</g>
		<polyline points="295,686.995 275,686.995 275,738.995
		335,738.995 335,686.995 311,686.995 	"/>
		<polyline points="335,674 335,738.995 405,738.995
		405,674.995 351,674.995 	"/>
		<g>
			<polyline points="405,674.995 405,738.995 485,738.995
			485,674.995 421,674.995 		"/>
			<rect x="473" y="674.995" width="12" height="32"/>
		</g>
		<g>
			<polyline points="136.333,757 217,757 217,823
			188.333,823 		"/>
			<polyline points="165,823 137,823 137,770 		"/>
		</g>
		<g>
			<polyline points="217,743 1,743 1,823 51,823 		"/>
			<polyline points="78.333,823 137,823 137,770 		"/>
			<line x1="217" y1="757" x2="136.333" y2="757"/>
		</g>
		<polyline points="274,535.33 274,541 324,541 324,507
		274,507 274,517.664 	"/>
		<g>
			<polyline points="367,223 358,223 358,261 367,261 		"/>
			<polyline points="404,261 485,261 485,223 404,223 		"/>
		</g>
		<g>
			<line x1="217" y1="135.16" x2="217" y2="191.664"/>
			<polyline points="228,191 275,191 275,186 		"/>
			<polyline points="275,165.667 275,113 245.667,113 		"/>
		</g>
		<polyline points="303,558.328 303,599 401,599 401,541
		274,541 274,558.328 	"/>
		<polyline points="303,645 303,599 401,599 401,658 274,658
		274,644.328 	"/>
		<g>
			<polyline points="25,870 1,870 1,904.988 179,904.988
			179,870 150,870 		"/>
			<line x1="125" y1="870" x2="56.333" y2="870"/>
		</g>
		<g>
			<polyline points="179,872.322 179,904.988 1,904.988
			1,1037 33,1037 116.333,1060.988 195,1037 217,1037 217,1018 		"/>
			<line x1="217" y1="990" x2="217" y2="869.654"/>
		</g>
		<polyline points="241,870 217,870 217,968.988 279,968.988
		279,870 265,870 	"/>
		<polyline points="299.333,841 341,841 341,738.995
		275,738.995 275,841.656 	"/>
		<g>
			<line x1="279" y1="870" x2="279" y2="919.322"/>
			<polyline points="299.333,920 370,920 370,870
			299.333,870 		"/>
		</g>
		<polyline points="279,919.322 279,968.988 370,968.988
		370,920 299.333,920 	"/>
		<polyline points="370,870 370,920 436,920 436,870
		387.666,870 	"/>
		<polyline points="505,894.488 505,870 436,870 436,920
		505,920 505,908.322 	"/>
		<g>
			<polyline points="505.666,920 370,920 370,968.988
			505,968.988 505,934.322 		"/>
			<line x1="436" y1="968.988" x2="436" y2="934"/>
		</g>
		<polyline points="369,791 451,791 451,738.995 341,738.995
		341,790.324 	"/>
		<polyline points="369,816 369,841 451,841 451,791 389,791
		389,815.99 	"/>
		<polyline points="467,841 451,841 451,738.995 506,738.995
		506,841 489,841 	"/>
		<g>
			<polyline points="574.333,841 591,841 591,738.995
			506,738.995 506,841 548,841 		"/>
			<polyline points="532,819.656 532,815.99 506,815.99
			506,841 532,841 532,832.322 		"/>
		</g>
		<polyline points="637,841 591,841 591,738.995 757,738.995
		757,841 653,841 	"/>
		<polyline points="630,913 548,913 548,968.988 629,968.988
		629,926.322 	"/>
		<g>
			<polyline points="630,913 548,913 548,888.654 		"/>
			<polyline points="547,875 629,875 629,894.488 		"/>
		</g>
		<polyline points="629,931.656 629,968.988 713,968.988
		713,931 659.666,931 	"/>
		<g>
			<polyline points="659,931 713,931 713,968.988
			757,968.988 757,875 732.333,875 		"/>
			<line x1="712.333" y1="875" x2="649" y2="875"/>
			<line x1="629" y1="875.656" x2="629" y2="895"/>
			<line x1="629" y1="926.322" x2="629" y2="931.656"/>
			<line x1="630" y1="913" x2="625.666" y2="913"/>
		</g>
		<g>
			<polyline points="712.333,841 757,841 757,849 		"/>
			<line x1="713" y1="858.322" x2="713" y2="875.656"/>
			<polyline points="732.333,875 757,875 757,866 		"/>
		</g>
		<g>
			<line x1="712.333" y1="841" x2="653" y2="841"/>
			<polyline points="713,858.322 713,875 649,875 		"/>
			<line x1="629" y1="875" x2="590.333" y2="875"/>
			<polyline points="591,858.322 591,841 637,841 		"/>
		</g>
		<g>
			<g>
				<polyline points="404,261 485,261 485,289 394,289 			"/>
				<line x1="395" y1="308" x2="395" y2="405"/>
				<line x1="394" y1="419" x2="398.333" y2="419"/>
				<line x1="395" y1="432" x2="395" y2="492.331"/>
				<line x1="396" y1="507" x2="274.333" y2="507"/>
				<polyline points="274.333,492 367,492 367,477 			"/>
				<line x1="367" y1="459.664" x2="367" y2="425"/>
				<line x1="367" y1="409.664" x2="367" y2="362"/>
				<line x1="368" y1="344.998" x2="274.333" y2="344.998"/>
				<polyline points="274,322.991 274,223 358,223 358,261
				367,261 			"/>
			</g>
			<g>
				<polyline points="358,261.665 358,310 344,310 			"/>
				<line x1="325" y1="310" x2="274.333" y2="310"/>
			</g>
		</g>
		<g>
			<line x1="275" y1="841.656" x2="275" y2="674"/>
			<line x1="274.333" y1="686.995" x2="295" y2="686.995"/>
			<polyline points="311,686.995 335,686.995 335,674 		"/>
			<line x1="351" y1="674.995" x2="404.666" y2="674.995"/>
			<line x1="421" y1="674.995" x2="485" y2="674.995"/>
			<polyline points="485,658 274,658 274,652.99
			266.333,652.99 		"/>
			<polyline points="231,652.99 217,652.99 217,701.662 		"/>
			<line x1="217" y1="718" x2="217" y2="743.662"/>
			<line x1="217" y1="757.661" x2="217" y2="848"/>
			<line x1="217" y1="823" x2="188.333" y2="823"/>
			<line x1="165" y1="823" x2="78.333" y2="823"/>
			<polyline points="51,823 1,823 1,870 25,870 		"/>
			<line x1="56.333" y1="870" x2="125" y2="870"/>
			<line x1="150" y1="870" x2="179" y2="870"/>
			<line x1="217" y1="870" x2="241" y2="870"/>
			<line x1="265" y1="870" x2="278.333" y2="870"/>
			<line x1="299.333" y1="870" x2="369.666" y2="870"/>
			<polyline points="387,870 505,870 505,894.488 		"/>
			<line x1="505" y1="908.322" x2="505" y2="919.322"/>
			<line x1="505" y1="934.322" x2="505" y2="968.988"/>
			<line x1="548" y1="968.988" x2="548" y2="887"/>
			<line x1="547" y1="875" x2="590.333" y2="875"/>
			<polyline points="591,858.322 591,841 574.333,841 		"/>
			<line x1="548" y1="841" x2="489" y2="841"/>
			<polyline points="467,841 369,841 369,816 		"/>
			<polyline points="389,815.99 389,791 369,791 		"/>
			<polyline points="341,790.324 341,841 299.333,841 		"/>
		</g>
		<g>
			<polyline points="266.333,652.99 274,652.99 274,613 		"/>
			<line x1="303" y1="645" x2="303" y2="558.328"/>
			<line x1="274" y1="586" x2="274" y2="535.33"/>
			<line x1="274" y1="517.664" x2="274" y2="507.664"/>
			<line x1="274" y1="492.331" x2="274" y2="478"/>
			<line x1="274" y1="459.664" x2="274" y2="344.998"/>
			<polyline points="274,322.991 274,223 344,223 344,218
			"/>
			<polyline points="344,206 344,199 275,199 275,191
			228,191 		"/>
			<polyline points="217,191.664 217,241 49,241 		"/>
			<line x1="29" y1="241" x2="16.333" y2="241"/>
			<line x1="16.333" y1="262" x2="107.667" y2="262"/>
			<line x1="130" y1="261" x2="130" y2="265.657"/>
			<polyline points="145,262 217,262 217,388.999
			146.667,388.999 		"/>
			<line x1="130" y1="390" x2="130" y2="386.331"/>
			<line x1="114" y1="388.999" x2="16.333" y2="388.999"/>
			<line x1="16.333" y1="404" x2="114" y2="404"/>
			<line x1="130" y1="403" x2="130" y2="409.664"/>
			<polyline points="146,404 217,404 217,535 146,535 		"/>
			<line x1="130" y1="536" x2="130" y2="531.657"/>
			<line x1="111" y1="535" x2="16.333" y2="535"/>
			<line x1="16.333" y1="550" x2="111" y2="550"/>
			<line x1="130" y1="549" x2="130" y2="554.324"/>
			<polyline points="146.333,550 217,550 217,652.99
			231,652.99 		"/>
		</g>
	</g>
	<g id="Text">
		<text transform="matrix(1 0 0 1 180 67.0005)" font-size="28">140</text>
		<text transform="matrix(1 0 0 1 93 156.3325)" font-size="28">138</text>
		<text transform="matrix(1 0 0 1 93 218.3237)" font-size="28">137</text>
		<text transform="matrix(1 0 0 1 294.333 165.6665)" font-size="28">141</text>
		<text transform="matrix(1 0 0 1 44.333 304.6665)" font-size="28">135</text>
		<text transform="matrix(1 0 0 1 44.333 371.3306)" font-size="28">134</text>
		<text transform="matrix(1 0 0 1 152.333 304.6665)" font-size="28">136</text>
		<text transform="matrix(1 0 0 1 152.333 371.3306)" font-size="28">133</text>
		<text transform="matrix(1 0 0 1 44.333 445.6655)" font-size="28">131</text>
		<text transform="matrix(1 0 0 1 44.333 512.3296)" font-size="28">130</text>
		<text transform="matrix(1 0 0 1 49 639.3296)" font-size="28">127</text>
		<text transform="matrix(1 0 0 1 44.333 718.9946)" font-size="28">124</text>
		<text transform="matrix(1 0 0 1 152.333 718.9946)" font-size="28">125</text>
		<text transform="matrix(1 0 0 1 152.333 802.6582)" font-size="28">122</text>
		<text transform="matrix(1 0 0 1 49 797.6582)" font-size="28">123</text>
		<text transform="matrix(1 0 0 1 84 994.6582)" font-size="28">119</text>
		<text transform="matrix(1 0 0 1 223.6665 934.3223)" font-size="28">118</text>
		<text transform="matrix(1 0 0 1 286.0005 807.3223)" font-size="28">112</text>
		<text transform="matrix(1 0 0 1 303.0005 901.1543)" font-size="28">116</text>
		<text transform="matrix(1 0 0 1 303.0005 951.6563)" font-size="28">117</text>
		<text transform="matrix(1 0 0 1 379.6665 901.1563)" font-size="28">115</text>
		<text transform="matrix(1 0 0 1 444.8335 901.1563)" font-size="28">113</text>
		<text transform="matrix(1 0 0 1 444.8335 951.6563)" font-size="28">114</text>
		<text transform="matrix(1 0 0 1 563.8335 951.6563)" font-size="28">104</text>
		<text transform="matrix(1 0 0 1 563.8335 905)" font-size="28">105</text>
		<text transform="matrix(1 0 0 1 673.3325 913.6563)" font-size="28">102</text>
		<text transform="matrix(1 0 0 1 636.3335 958.0508)" font-size="28">103</text>
		<text transform="matrix(1 0 0 1 640.3335 797.6582)" font-size="28">101</text>
		<text transform="matrix(1 0 0 1 526.3335 797.6582)" font-size="28">107</text>
		<text transform="matrix(1 0 0 1 457.3335 797.6582)" font-size="28">109</text>
		<text transform="matrix(1 0 0 1 420.9995 718.9946)" font-size="28">159</text>
		<text transform="matrix(1 0 0 1 344.3325 718.9946)" font-size="28">158</text>
		<text transform="matrix(1 0 0 1 281.3335 723.9946)" font-size="28">157</text>
		<text transform="matrix(1 0 0 1 424.3335 575.3306)" font-size="28">152</text>
		<text transform="matrix(1 0 0 1 420.9995 470.3306)" font-size="28">151</text>
		<text transform="matrix(1 0 0 1 420.9995 411)" font-size="28">146</text>
		<text transform="matrix(1 0 0 1 420.9995 343)" font-size="28">147</text>
		<text transform="matrix(1 0 0 1 304.3325 382.3306)" font-size="28">148</text>
		<text transform="matrix(1 0 0 1 304.3325 432.9976)" font-size="28">149</text>
		<text transform="matrix(1 0 0 1 304.3325 478.9976)" font-size="28">150</text>
		<text transform="matrix(1 0 0 1 152.333 445.6655)" font-size="28">132</text>
		<text transform="matrix(1 0 0 1 152.333 512.3296)" font-size="28">129</text>
		<text transform="matrix(1 0 0 1 152.333 590.979)" font-size="28">128</text>
		<text transform="matrix(1 0 0 1 152.333 657.6431)" font-size="28">126</text>
		<text transform="matrix(1 0 0 1 373.3301 760.6606)" font-size="20">Rest</text>
		<text transform="matrix(1 0 0 1 393 813.9902)" font-size="20">Rest</text>
		<text transform="matrix(1 0 0 1 324.333 624.311)" font-size="20">Rest</text>
		<text transform="matrix(1 0 0 1 324.333 569.6626)" font-size="20">Rest</text>
		<text transform="matrix(1 0 0 1 373.3301 779.3271)" font-size="20">Room</text>
		<text transform="matrix(1 0 0 1 393 832.6572)" font-size="20">Room</text>
		<text transform="matrix(1 0 0 1 324.333 642.9775)" font-size="20">Room</text>
		<text transform="matrix(1 0 0 1 324.333 588.3291)" font-size="20">Room</text>
	</g>
</svg>
